<svg xmlns="http://www.w3.org/2000/svg" xmlns:xlink="http://www.w3.org/1999/xlink" width="300" zoomAndPan="magnify" viewBox="0 0 224.87999 37.5" height="50" preserveAspectRatio="xMidYMid meet" version="1.0"><defs><g/><clipPath id="38fe84dce2"><path d="M 8.378906 1.332031 L 40.207031 1.332031 L 40.207031 33.15625 L 8.378906 33.15625 Z M 8.378906 1.332031 " clip-rule="nonzero"/></clipPath><clipPath id="4b41be1706"><path d="M 24.363281 1.332031 C 15.535156 1.332031 8.378906 8.488281 8.378906 17.316406 C 8.378906 26.140625 15.535156 33.296875 24.363281 33.296875 C 33.1875 33.296875 40.34375 26.140625 40.34375 17.316406 C 40.34375 8.488281 33.1875 1.332031 24.363281 1.332031 Z M 24.363281 1.332031 " clip-rule="nonzero"/></clipPath><clipPath id="f30f26143a"><path d="M 3 0 L 46 0 L 46 37.007812 L 3 37.007812 Z M 3 0 " clip-rule="nonzero"/></clipPath></defs><g clip-path="url(#38fe84dce2)"><g clip-path="url(#4b41be1706)"><path stroke-linecap="butt" transform="matrix(0.740132, 0, 0, 0.740132, 8.380444, 1.332238)" fill="none" stroke-linejoin="miter" d="M 21.59459 -0.000279036 C 9.666811 -0.000279036 -0.00207781 9.66861 -0.00207781 21.596389 C -0.00207781 33.518889 9.666811 43.187778 21.59459 43.187778 C 33.51709 43.187778 43.18598 33.518889 43.18598 21.596389 C 43.18598 9.66861 33.51709 -0.000279036 21.59459 -0.000279036 Z M 21.59459 -0.000279036 " stroke="#00796b" stroke-width="14" stroke-opacity="1" stroke-miterlimit="4"/></g></g><g clip-path="url(#f30f26143a)"><path stroke-linecap="butt" transform="matrix(0.000564691, 0.740131, -0.740131, 0.000564691, 26.2031, 16.759013)" fill="none" stroke-linejoin="miter" d="M 0.00174677 2.501636 L 24.548702 2.499253 " stroke="#cca300" stroke-width="5" stroke-opacity="1" stroke-miterlimit="4"/></g><path stroke-linecap="butt" transform="matrix(-0.740132, -0.00000000129177, 0.00000000129177, -0.740132, 31.252128, 19.983553)" fill="none" stroke-linejoin="miter" d="M -0.00240326 1.999167 L 18.61232 1.999167 " stroke="#cca300" stroke-width="4" stroke-opacity="1" stroke-miterlimit="4"/><path stroke-linecap="butt" transform="matrix(0.370387, -0.640787, 0.640787, 0.370387, 24.030948, 17.203329)" fill="none" stroke-linejoin="miter" d="M -0.00142921 2.000792 L 8.79491 2.000417 " stroke="#cca300" stroke-width="4" stroke-opacity="1" stroke-miterlimit="4"/><path stroke-linecap="butt" transform="matrix(-0.740132, -0.00000000129177, 0.00000000129177, -0.740132, 31.238264, 25.411198)" fill="none" stroke-linejoin="miter" d="M -0.0000227063 2.001685 L 18.6147 2.001685 " stroke="#cca300" stroke-width="4" stroke-opacity="1" stroke-miterlimit="4"/><g fill="#00796b" fill-opacity="1"><g transform="translate(42.074528, 30.592117)"><g><path d="M 10.34375 -0.640625 C 9.957031 -0.359375 9.488281 -0.144531 8.9375 0 C 8.382812 0.132812 7.804688 0.203125 7.203125 0.203125 C 5.617188 0.203125 4.394531 -0.195312 3.53125 -1 C 2.675781 -1.8125 2.25 -3 2.25 -4.5625 L 2.25 -10.015625 L 0.203125 -10.015625 L 0.203125 -12.984375 L 2.25 -12.984375 L 2.25 -16.203125 L 6.09375 -16.203125 L 6.09375 -12.984375 L 9.40625 -12.984375 L 9.40625 -10.015625 L 6.09375 -10.015625 L 6.09375 -4.609375 C 6.09375 -4.054688 6.234375 -3.625 6.515625 -3.3125 C 6.804688 -3.007812 7.21875 -2.859375 7.75 -2.859375 C 8.351562 -2.859375 8.867188 -3.023438 9.296875 -3.359375 Z M 10.34375 -0.640625 "/></g></g></g><g fill="#00796b" fill-opacity="1"><g transform="translate(52.755446, 30.592117)"><g><path d="M 8.09375 0.203125 C 6.695312 0.203125 5.441406 -0.0859375 4.328125 -0.671875 C 3.222656 -1.253906 2.359375 -2.0625 1.734375 -3.09375 C 1.109375 -4.132812 0.796875 -5.316406 0.796875 -6.640625 C 0.796875 -7.953125 1.109375 -9.125 1.734375 -10.15625 C 2.359375 -11.195312 3.222656 -12.007812 4.328125 -12.59375 C 5.441406 -13.175781 6.695312 -13.46875 8.09375 -13.46875 C 9.488281 -13.46875 10.738281 -13.175781 11.84375 -12.59375 C 12.945312 -12.007812 13.8125 -11.195312 14.4375 -10.15625 C 15.0625 -9.125 15.375 -7.953125 15.375 -6.640625 C 15.375 -5.316406 15.0625 -4.132812 14.4375 -3.09375 C 13.8125 -2.0625 12.945312 -1.253906 11.84375 -0.671875 C 10.738281 -0.0859375 9.488281 0.203125 8.09375 0.203125 Z M 8.09375 -2.953125 C 9.082031 -2.953125 9.890625 -3.285156 10.515625 -3.953125 C 11.148438 -4.617188 11.46875 -5.515625 11.46875 -6.640625 C 11.46875 -7.753906 11.148438 -8.644531 10.515625 -9.3125 C 9.890625 -9.976562 9.082031 -10.3125 8.09375 -10.3125 C 7.101562 -10.3125 6.285156 -9.976562 5.640625 -9.3125 C 5.003906 -8.644531 4.6875 -7.753906 4.6875 -6.640625 C 4.6875 -5.515625 5.003906 -4.617188 5.640625 -3.953125 C 6.285156 -3.285156 7.101562 -2.953125 8.09375 -2.953125 Z M 8.09375 -2.953125 "/></g></g></g><g fill="#00796b" fill-opacity="1"><g transform="translate(69.282494, 30.592117)"><g><path d="M 7.46875 -5.203125 L 5.625 -3.375 L 5.625 0 L 1.78125 0 L 1.78125 -18.3125 L 5.625 -18.3125 L 5.625 -7.9375 L 11.25 -13.265625 L 15.84375 -13.265625 L 10.3125 -7.640625 L 16.328125 0 L 11.671875 0 Z M 7.46875 -5.203125 "/></g></g></g><g fill="#00796b" fill-opacity="1"><g transform="translate(85.686195, 30.592117)"><g><path d="M 15.15625 -13.265625 L 15.15625 0 L 11.5 0 L 11.5 -1.578125 C 10.988281 -1.003906 10.378906 -0.5625 9.671875 -0.25 C 8.960938 0.0507812 8.195312 0.203125 7.375 0.203125 C 5.632812 0.203125 4.253906 -0.296875 3.234375 -1.296875 C 2.210938 -2.304688 1.703125 -3.796875 1.703125 -5.765625 L 1.703125 -13.265625 L 5.546875 -13.265625 L 5.546875 -6.34375 C 5.546875 -4.207031 6.441406 -3.140625 8.234375 -3.140625 C 9.160156 -3.140625 9.898438 -3.4375 10.453125 -4.03125 C 11.015625 -4.632812 11.296875 -5.523438 11.296875 -6.703125 L 11.296875 -13.265625 Z M 15.15625 -13.265625 "/></g></g></g><g fill="#ffffff" fill-opacity="1"><g transform="translate(107.169503, 31.332249)"><g><path d="M 11.140625 0.3125 C 9.234375 0.3125 7.507812 -0.0976562 5.96875 -0.921875 C 4.4375 -1.742188 3.226562 -2.882812 2.34375 -4.34375 C 1.46875 -5.8125 1.03125 -7.472656 1.03125 -9.328125 C 1.03125 -11.171875 1.46875 -12.820312 2.34375 -14.28125 C 3.226562 -15.75 4.4375 -16.894531 5.96875 -17.71875 C 7.507812 -18.550781 9.238281 -18.96875 11.15625 -18.96875 C 12.78125 -18.96875 14.242188 -18.679688 15.546875 -18.109375 C 16.847656 -17.546875 17.941406 -16.734375 18.828125 -15.671875 L 16.0625 -13.109375 C 14.800781 -14.566406 13.238281 -15.296875 11.375 -15.296875 C 10.21875 -15.296875 9.1875 -15.039062 8.28125 -14.53125 C 7.375 -14.019531 6.664062 -13.3125 6.15625 -12.40625 C 5.65625 -11.507812 5.40625 -10.484375 5.40625 -9.328125 C 5.40625 -8.171875 5.65625 -7.140625 6.15625 -6.234375 C 6.664062 -5.328125 7.375 -4.617188 8.28125 -4.109375 C 9.1875 -3.609375 10.21875 -3.359375 11.375 -3.359375 C 13.238281 -3.359375 14.800781 -4.09375 16.0625 -5.5625 L 18.828125 -3.015625 C 17.941406 -1.929688 16.84375 -1.101562 15.53125 -0.53125 C 14.21875 0.03125 12.753906 0.3125 11.140625 0.3125 Z M 11.140625 0.3125 "/></g></g></g><g fill="#ffffff" fill-opacity="1"><g transform="translate(127.36622, 31.332249)"><g><path d="M 10.625 -14.546875 C 12.40625 -14.546875 13.84375 -14.007812 14.9375 -12.9375 C 16.03125 -11.875 16.578125 -10.296875 16.578125 -8.203125 L 16.578125 0 L 12.421875 0 L 12.421875 -7.5625 C 12.421875 -8.695312 12.171875 -9.546875 11.671875 -10.109375 C 11.171875 -10.671875 10.453125 -10.953125 9.515625 -10.953125 C 8.460938 -10.953125 7.625 -10.625 7 -9.96875 C 6.382812 -9.320312 6.078125 -8.363281 6.078125 -7.09375 L 6.078125 0 L 1.921875 0 L 1.921875 -19.765625 L 6.078125 -19.765625 L 6.078125 -12.84375 C 6.628906 -13.394531 7.296875 -13.816406 8.078125 -14.109375 C 8.859375 -14.398438 9.707031 -14.546875 10.625 -14.546875 Z M 10.625 -14.546875 "/></g></g></g><g fill="#ffffff" fill-opacity="1"><g transform="translate(146.603722, 31.332249)"><g><path d="M 8.734375 0.21875 C 7.222656 0.21875 5.867188 -0.09375 4.671875 -0.71875 C 3.472656 -1.351562 2.535156 -2.226562 1.859375 -3.34375 C 1.191406 -4.46875 0.859375 -5.742188 0.859375 -7.171875 C 0.859375 -8.585938 1.191406 -9.851562 1.859375 -10.96875 C 2.535156 -12.09375 3.472656 -12.96875 4.671875 -13.59375 C 5.867188 -14.226562 7.222656 -14.546875 8.734375 -14.546875 C 10.242188 -14.546875 11.59375 -14.226562 12.78125 -13.59375 C 13.976562 -12.96875 14.910156 -12.09375 15.578125 -10.96875 C 16.253906 -9.851562 16.59375 -8.585938 16.59375 -7.171875 C 16.59375 -5.742188 16.253906 -4.46875 15.578125 -3.34375 C 14.910156 -2.226562 13.976562 -1.351562 12.78125 -0.71875 C 11.59375 -0.09375 10.242188 0.21875 8.734375 0.21875 Z M 8.734375 -3.203125 C 9.804688 -3.203125 10.679688 -3.5625 11.359375 -4.28125 C 12.046875 -5 12.390625 -5.960938 12.390625 -7.171875 C 12.390625 -8.378906 12.046875 -9.34375 11.359375 -10.0625 C 10.679688 -10.78125 9.804688 -11.140625 8.734375 -11.140625 C 7.671875 -11.140625 6.789062 -10.78125 6.09375 -10.0625 C 5.40625 -9.34375 5.0625 -8.378906 5.0625 -7.171875 C 5.0625 -5.960938 5.40625 -5 6.09375 -4.28125 C 6.789062 -3.5625 7.671875 -3.203125 8.734375 -3.203125 Z M 8.734375 -3.203125 "/></g></g></g><g fill="#ffffff" fill-opacity="1"><g transform="translate(164.72214, 31.332249)"><g><path d="M 1.921875 -14.328125 L 6.078125 -14.328125 L 6.078125 0 L 1.921875 0 Z M 3.984375 -16.328125 C 3.222656 -16.328125 2.601562 -16.546875 2.125 -16.984375 C 1.644531 -17.429688 1.40625 -17.988281 1.40625 -18.65625 C 1.40625 -19.3125 1.644531 -19.859375 2.125 -20.296875 C 2.601562 -20.742188 3.222656 -20.96875 3.984375 -20.96875 C 4.753906 -20.96875 5.378906 -20.753906 5.859375 -20.328125 C 6.335938 -19.898438 6.578125 -19.367188 6.578125 -18.734375 C 6.578125 -18.035156 6.335938 -17.457031 5.859375 -17 C 5.378906 -16.550781 4.753906 -16.328125 3.984375 -16.328125 Z M 3.984375 -16.328125 "/></g></g></g><g fill="#ffffff" fill-opacity="1"><g transform="translate(173.408318, 31.332249)"><g><path d="M 8.84375 0.21875 C 7.3125 0.21875 5.9375 -0.09375 4.71875 -0.71875 C 3.507812 -1.351562 2.5625 -2.226562 1.875 -3.34375 C 1.195312 -4.46875 0.859375 -5.742188 0.859375 -7.171875 C 0.859375 -8.585938 1.195312 -9.851562 1.875 -10.96875 C 2.5625 -12.09375 3.507812 -12.96875 4.71875 -13.59375 C 5.9375 -14.226562 7.3125 -14.546875 8.84375 -14.546875 C 10.351562 -14.546875 11.671875 -14.226562 12.796875 -13.59375 C 13.929688 -12.96875 14.753906 -12.066406 15.265625 -10.890625 L 12.046875 -9.171875 C 11.296875 -10.484375 10.21875 -11.140625 8.8125 -11.140625 C 7.726562 -11.140625 6.832031 -10.78125 6.125 -10.0625 C 5.414062 -9.351562 5.0625 -8.390625 5.0625 -7.171875 C 5.0625 -5.941406 5.414062 -4.972656 6.125 -4.265625 C 6.832031 -3.554688 7.726562 -3.203125 8.8125 -3.203125 C 10.238281 -3.203125 11.316406 -3.859375 12.046875 -5.171875 L 15.265625 -3.40625 C 14.753906 -2.269531 13.929688 -1.378906 12.796875 -0.734375 C 11.671875 -0.0976562 10.351562 0.21875 8.84375 0.21875 Z M 8.84375 0.21875 "/></g></g></g><g fill="#ffffff" fill-opacity="1"><g transform="translate(189.634959, 31.332249)"><g><path d="M 15.953125 -7.109375 C 15.953125 -7.054688 15.925781 -6.6875 15.875 -6 L 5.03125 -6 C 5.226562 -5.101562 5.691406 -4.394531 6.421875 -3.875 C 7.148438 -3.363281 8.054688 -3.109375 9.140625 -3.109375 C 9.878906 -3.109375 10.535156 -3.21875 11.109375 -3.4375 C 11.691406 -3.664062 12.234375 -4.019531 12.734375 -4.5 L 14.953125 -2.109375 C 13.597656 -0.554688 11.625 0.21875 9.03125 0.21875 C 7.414062 0.21875 5.984375 -0.09375 4.734375 -0.71875 C 3.492188 -1.351562 2.535156 -2.226562 1.859375 -3.34375 C 1.191406 -4.46875 0.859375 -5.742188 0.859375 -7.171875 C 0.859375 -8.566406 1.1875 -9.828125 1.84375 -10.953125 C 2.507812 -12.085938 3.425781 -12.96875 4.59375 -13.59375 C 5.757812 -14.226562 7.0625 -14.546875 8.5 -14.546875 C 9.90625 -14.546875 11.175781 -14.242188 12.3125 -13.640625 C 13.445312 -13.035156 14.335938 -12.164062 14.984375 -11.03125 C 15.628906 -9.90625 15.953125 -8.597656 15.953125 -7.109375 Z M 8.53125 -11.40625 C 7.582031 -11.40625 6.785156 -11.132812 6.140625 -10.59375 C 5.503906 -10.0625 5.117188 -9.335938 4.984375 -8.421875 L 12.046875 -8.421875 C 11.898438 -9.328125 11.503906 -10.050781 10.859375 -10.59375 C 10.222656 -11.132812 9.445312 -11.40625 8.53125 -11.40625 Z M 8.53125 -11.40625 "/></g></g></g><g fill="#ffffff" fill-opacity="1"><g transform="translate(207.113903, 31.332249)"><g><path d="M 6.734375 0.21875 C 5.546875 0.21875 4.382812 0.0703125 3.25 -0.21875 C 2.113281 -0.519531 1.207031 -0.890625 0.53125 -1.328125 L 1.921875 -4.3125 C 2.554688 -3.90625 3.328125 -3.570312 4.234375 -3.3125 C 5.140625 -3.0625 6.03125 -2.9375 6.90625 -2.9375 C 8.65625 -2.9375 9.53125 -3.367188 9.53125 -4.234375 C 9.53125 -4.640625 9.289062 -4.929688 8.8125 -5.109375 C 8.332031 -5.285156 7.597656 -5.4375 6.609375 -5.5625 C 5.429688 -5.738281 4.460938 -5.941406 3.703125 -6.171875 C 2.941406 -6.410156 2.28125 -6.820312 1.71875 -7.40625 C 1.15625 -7.988281 0.875 -8.820312 0.875 -9.90625 C 0.875 -10.8125 1.132812 -11.613281 1.65625 -12.3125 C 2.1875 -13.019531 2.953125 -13.566406 3.953125 -13.953125 C 4.960938 -14.347656 6.148438 -14.546875 7.515625 -14.546875 C 8.523438 -14.546875 9.53125 -14.429688 10.53125 -14.203125 C 11.539062 -13.984375 12.375 -13.679688 13.03125 -13.296875 L 11.640625 -10.34375 C 10.378906 -11.050781 9.003906 -11.40625 7.515625 -11.40625 C 6.628906 -11.40625 5.960938 -11.28125 5.515625 -11.03125 C 5.066406 -10.78125 4.84375 -10.457031 4.84375 -10.0625 C 4.84375 -9.625 5.082031 -9.316406 5.5625 -9.140625 C 6.039062 -8.960938 6.804688 -8.789062 7.859375 -8.625 C 9.035156 -8.4375 9.992188 -8.226562 10.734375 -8 C 11.484375 -7.78125 12.128906 -7.378906 12.671875 -6.796875 C 13.222656 -6.210938 13.5 -5.394531 13.5 -4.34375 C 13.5 -3.457031 13.234375 -2.664062 12.703125 -1.96875 C 12.171875 -1.28125 11.394531 -0.742188 10.375 -0.359375 C 9.351562 0.0234375 8.140625 0.21875 6.734375 0.21875 Z M 6.734375 0.21875 "/></g></g></g><path stroke-linecap="butt" transform="matrix(0.370066, 0.640973, -0.640973, 0.370066, 21.431885, 11.57591)" fill="none" stroke-linejoin="miter" d="M -0.000588308 2.002003 L 8.793112 2.002536 " stroke="#cca300" stroke-width="4" stroke-opacity="1" stroke-miterlimit="4"/></svg>