<svg version="1.2" xmlns="http://www.w3.org/2000/svg" viewBox="0 0 1024 1024" width="1024" height="1024">
	<style>
		.s0 { fill: none;stroke: #489b10;stroke-linecap: round;stroke-linejoin: round;stroke-width: 85 } 
		.s1 { fill: none;stroke: #bcb218;stroke-miterlimit:100;stroke-width: 60 } 
		.s2 { fill: none;stroke: #bcb218;stroke-miterlimit:100;stroke-width: 50 } 
		.s3 { fill: none;stroke: #bcb218;stroke-miterlimit:100;stroke-width: 70 } 
	</style>
	<path id="Background" fill-rule="evenodd" class="s0" d="m510 891c-247.74 0-448-175.22-448-392 0-216.78 200.26-392 448-392 247.74 0 448 175.22 448 392 0 216.78-200.26 392-448 392z"/>
	<path id="シェイプ 1" fill-rule="evenodd" class="s1" d="m313.94 325.16l3.62-3.45 196.25 205.5-3.62 3.45z"/>
	<path id="シェイプ 2" fill-rule="evenodd" class="s1" d="m696.37 314.29l3.76 3.3-186.25 211.5-3.76-3.3z"/>
	<path id="シェイプ 3" fill-rule="evenodd" class="s2" d="m306.75 547.94v-5h418.5v5z"/>
	<path id="シェイプ 4" fill-rule="evenodd" class="s2" d="m311.26 657.44l-0.02-5 406.5-1.5 0.02 5z"/>
	<path id="シェイプ 5" fill-rule="evenodd" class="s3" d="m509.5 527.44h5v457.5h-5z"/>
</svg>