<svg xmlns="http://www.w3.org/2000/svg" xmlns:xlink="http://www.w3.org/1999/xlink" width="500" zoomAndPan="magnify" viewBox="0 0 375 374.999991" height="500" preserveAspectRatio="xMidYMid meet" version="1.0"><defs><g/><clipPath id="95c48e5137"><path d="M 18 15.46875 L 356 15.46875 L 356 359.71875 L 18 359.71875 Z M 18 15.46875 " clip-rule="nonzero"/></clipPath></defs><g clip-path="url(#95c48e5137)"><path fill="#ffffff" d="M 110.652344 52.207031 C 83.574219 76.214844 61.308594 108.40625 43.855469 148.789062 C 43.828125 148.851562 43.804688 148.917969 43.78125 148.980469 C 23.605469 205.523438 30.234375 256.023438 63.667969 300.492188 C 63.726562 300.570312 63.792969 300.648438 63.859375 300.722656 C 80.054688 318.464844 97.457031 332.164062 116.070312 341.824219 C 100.300781 335.957031 85.359375 327.246094 71.257812 315.691406 L 71.25 315.691406 C 28.550781 276.757812 15.410156 224.464844 31.832031 158.816406 L 31.824219 158.816406 C 46.609375 111.808594 72.878906 76.273438 110.636719 52.207031 Z M 200.125 24.34375 C 241.015625 24.34375 277.441406 41.414062 309.402344 75.550781 L 309.386719 75.550781 C 348.476562 125.671875 359 179.960938 340.964844 238.425781 L 340.960938 238.425781 C 318.585938 298.589844 278.789062 335.648438 221.578125 349.597656 L 221.5625 349.597656 C 219.714844 349.941406 217.875 350.253906 216.042969 350.542969 C 256.996094 339.316406 288.238281 316.015625 309.761719 280.632812 C 309.796875 280.578125 309.828125 280.519531 309.859375 280.460938 C 331.382812 239.582031 333.402344 196.199219 315.925781 150.316406 L 315.898438 150.25 C 298.523438 107.574219 265.789062 76.25 217.691406 56.28125 C 217.292969 56.113281 216.882812 56.035156 216.476562 56.035156 C 215.230469 56.035156 214.046875 56.773438 213.539062 57.996094 C 212.867188 59.613281 213.636719 61.472656 215.257812 62.144531 C 261.71875 81.4375 293.308594 111.605469 310.015625 152.648438 C 326.785156 196.71875 324.859375 238.335938 304.238281 277.503906 L 304.230469 277.503906 C 280.640625 316.171875 244.863281 339.785156 196.898438 348.335938 C 186.84375 350.035156 177.039062 350.886719 167.480469 350.886719 C 166.148438 350.886719 164.820312 350.871094 163.496094 350.835938 L 163.480469 350.835938 C 128.195312 345.175781 96.613281 327.109375 68.734375 296.640625 L 68.71875 296.640625 C 36.714844 254.054688 30.375 205.609375 49.695312 151.308594 L 49.6875 151.308594 C 73.085938 97.175781 105.242188 58.15625 146.152344 34.257812 L 146.140625 34.257812 C 149.9375 32.765625 153.816406 31.355469 157.78125 30.03125 L 157.765625 30.03125 C 172.382812 26.238281 186.5 24.34375 200.125 24.34375 Z M 169.777344 15.925781 C 169.378906 15.925781 168.972656 16.003906 168.582031 16.164062 C 159.839844 19.71875 151.429688 23.84375 143.355469 28.53125 L 143.339844 28.53125 C 84.5625 51.78125 45.371094 94.574219 25.765625 156.910156 C 25.746094 156.96875 25.730469 157.027344 25.714844 157.089844 C 8.609375 225.277344 22.359375 279.710938 66.96875 320.386719 C 67.011719 320.421875 67.050781 320.457031 67.09375 320.492188 C 95.671875 343.953125 127.527344 356.183594 162.664062 357.183594 L 162.648438 357.183594 C 170.914062 358.492188 179.378906 359.148438 188.035156 359.148438 C 199.316406 359.148438 210.929688 358.035156 222.875 355.816406 C 222.933594 355.804688 222.988281 355.792969 223.046875 355.777344 C 282.515625 341.289062 323.828125 302.851562 346.980469 240.464844 C 347 240.410156 347.019531 240.351562 347.035156 240.296875 C 365.75 179.636719 354.8125 123.347656 314.222656 71.425781 C 314.164062 71.347656 314.105469 71.277344 314.039062 71.210938 C 280.800781 35.707031 242.894531 17.953125 200.328125 17.953125 C 191.332031 17.953125 182.125 18.746094 172.707031 20.332031 C 173.023438 19.585938 173.050781 18.71875 172.722656 17.90625 C 172.21875 16.675781 171.03125 15.925781 169.777344 15.925781 Z M 169.777344 15.925781 " fill-opacity="0.988" fill-rule="nonzero"/></g><g fill="#cca300" fill-opacity="1"><g transform="translate(69.221102, 289.946583)"><g><path d="M 186.015625 -164.484375 C 188.523438 -157.234375 189.78125 -149.6875 189.78125 -141.84375 C 189.78125 -97.738281 169.582031 -74.207031 129.1875 -71.25 C 68.21875 -66.664062 37.734375 -90.488281 37.734375 -142.71875 C 37.734375 -150.414062 38.992188 -158.484375 41.515625 -166.921875 C 41.804688 -168.546875 44.023438 -169.359375 48.171875 -169.359375 C 54.535156 -169.359375 57.492188 -168.546875 57.046875 -166.921875 C 49.347656 -140.878906 52.085938 -119.492188 65.265625 -102.765625 C 76.210938 -88.710938 90.269531 -79.910156 107.4375 -76.359375 C 126.226562 -72.359375 141.617188 -76.867188 153.609375 -89.890625 C 174.316406 -112.242188 179.9375 -137.109375 170.46875 -164.484375 C 170.03125 -165.660156 172.328125 -166.472656 177.359375 -166.921875 C 182.390625 -167.066406 185.273438 -166.253906 186.015625 -164.484375 Z M 179.796875 -48.828125 C 166.773438 -48.828125 147.390625 -48.976562 121.640625 -49.28125 C 121.335938 -41.726562 121.335938 -34.179688 121.640625 -26.640625 C 134.660156 -26.492188 154.046875 -26.269531 179.796875 -25.96875 C 184.234375 -25.96875 186.523438 -25.226562 186.671875 -23.75 C 186.523438 -22.125 184.234375 -21.3125 179.796875 -21.3125 C 171.953125 -21.3125 162.332031 -21.382812 150.9375 -21.53125 C 131.550781 -21.820312 121.859375 -21.96875 121.859375 -21.96875 C 122.597656 -10.28125 123.5625 0.0703125 124.75 9.09375 C 124.894531 10.726562 122.15625 11.546875 116.53125 11.546875 C 111.800781 11.546875 109.359375 10.726562 109.203125 9.09375 C 107.578125 -2.738281 106.617188 -13.09375 106.328125 -21.96875 C 85.304688 -21.96875 66.660156 -21.378906 50.390625 -20.203125 C 46.835938 -19.898438 44.023438 -20.488281 41.953125 -21.96875 C 39.585938 -23.300781 40.992188 -24.191406 46.171875 -24.640625 C 62.148438 -25.671875 82.125 -26.335938 106.09375 -26.640625 C 105.65625 -33.296875 105.582031 -40.84375 105.875 -49.28125 C 85.15625 -49.28125 66.660156 -48.6875 50.390625 -47.5 C 46.835938 -47.207031 44.023438 -47.800781 41.953125 -49.28125 C 39.585938 -50.757812 40.992188 -51.71875 46.171875 -52.15625 C 63.929688 -53.34375 83.90625 -53.9375 106.09375 -53.9375 C 106.394531 -58.96875 106.691406 -62.742188 106.984375 -65.265625 C 107.128906 -67.035156 109.867188 -67.847656 115.203125 -67.703125 C 120.234375 -67.554688 122.75 -66.742188 122.75 -65.265625 C 122.457031 -62.742188 122.160156 -58.96875 121.859375 -53.9375 C 147.609375 -53.644531 166.921875 -53.5 179.796875 -53.5 C 184.234375 -53.5 186.523438 -52.757812 186.671875 -51.28125 C 186.523438 -49.644531 184.234375 -48.828125 179.796875 -48.828125 Z M 179.796875 -48.828125 "/></g></g></g></svg>