<svg xmlns="http://www.w3.org/2000/svg" xmlns:xlink="http://www.w3.org/1999/xlink" width="2000" zoomAndPan="magnify" viewBox="0 0 1500 1499.999933" height="2000" preserveAspectRatio="xMidYMid meet" version="1.0"><defs><clipPath id="a28b38e8ce"><path d="M 75 0 L 1425 0 L 1425 1350 L 75 1350 Z M 75 0 " clip-rule="nonzero"/></clipPath><clipPath id="b72f199b79"><path d="M 750 0 C 377.207031 0 75 302.207031 75 675 C 75 1047.792969 377.207031 1350 750 1350 C 1122.792969 1350 1425 1047.792969 1425 675 C 1425 302.207031 1122.792969 0 750 0 Z M 750 0 " clip-rule="nonzero"/></clipPath><clipPath id="45f1e52c89"><path d="M 0 0 L 1350 0 L 1350 1350 L 0 1350 Z M 0 0 " clip-rule="nonzero"/></clipPath><clipPath id="822a7396ad"><path d="M 675 0 C 302.207031 0 0 302.207031 0 675 C 0 1047.792969 302.207031 1350 675 1350 C 1047.792969 1350 1350 1047.792969 1350 675 C 1350 302.207031 1047.792969 0 675 0 Z M 675 0 " clip-rule="nonzero"/></clipPath><clipPath id="c8dc6d5ffb"><rect x="0" width="1350" y="0" height="1350"/></clipPath></defs><g clip-path="url(#a28b38e8ce)"><g clip-path="url(#b72f199b79)"><g transform="matrix(1, 0, 0, 1, 75, 0.000000000000112861)"><g clip-path="url(#c8dc6d5ffb)"><g clip-path="url(#45f1e52c89)"><g clip-path="url(#822a7396ad)"><rect x="-405" width="2160" fill="#00796b" height="2159.999904" y="-329.999985" fill-opacity="1"/></g></g></g></g></g></g><path stroke-linecap="butt" transform="matrix(0.00136705, 0.749999, -0.749999, 0.00136705, 823.828618, 857.64101)" fill="none" stroke-linejoin="miter" d="M -0.000496175 100.000832 L 856.297881 99.999131 " stroke="#cca300" stroke-width="200" stroke-opacity="1" stroke-miterlimit="4"/><path stroke-linecap="butt" transform="matrix(-0.75, -0.000000001309, 0.000000001309, -0.75, 1034.772952, 945.465595)" fill="none" stroke-linejoin="miter" d="M -0.000646907 75.001008 L 775.598378 75.001006 " stroke="#cca300" stroke-width="150" stroke-opacity="1" stroke-miterlimit="4"/><path stroke-linecap="butt" transform="matrix(-0.481716, -0.574848, 0.574848, -0.481716, 677.590415, 894.485111)" fill="none" stroke-linejoin="miter" d="M -0.000518098 60.000887 L 537.683747 59.999683 " stroke="#cca300" stroke-width="120" stroke-opacity="1" stroke-miterlimit="4"/><path stroke-linecap="butt" transform="matrix(0.487116, -0.570279, 0.570279, 0.487116, 714.6125, 860.60093)" fill="none" stroke-linejoin="miter" d="M -0.00121399 59.999087 L 584.501876 60.002545 " stroke="#cca300" stroke-width="120" stroke-opacity="1" stroke-miterlimit="4"/><path stroke-linecap="butt" transform="matrix(-0.75, -0.000000001309, 0.000000001309, -0.75, 1033.544944, 1150.276057)" fill="none" stroke-linejoin="miter" d="M -0.0025741 74.998291 L 775.601659 74.998289 " stroke="#cca300" stroke-width="150" stroke-opacity="1" stroke-miterlimit="4"/></svg>