<svg xmlns="http://www.w3.org/2000/svg" xmlns:xlink="http://www.w3.org/1999/xlink" width="500" zoomAndPan="magnify" viewBox="0 0 375 374.999991" height="500" preserveAspectRatio="xMidYMid meet" version="1.0"><defs><g/><clipPath id="9048948991"><path d="M 18 15.46875 L 356 15.46875 L 356 359.71875 L 18 359.71875 Z M 18 15.46875 " clip-rule="nonzero"/></clipPath></defs><g clip-path="url(#9048948991)"><path fill="#000000" d="M 110.652344 52.226562 C 83.574219 76.246094 61.308594 108.457031 43.855469 148.863281 C 43.828125 148.925781 43.804688 148.988281 43.78125 149.054688 C 23.605469 205.625 30.234375 256.15625 63.667969 300.648438 C 63.726562 300.726562 63.792969 300.804688 63.859375 300.878906 C 80.054688 318.628906 97.457031 332.335938 116.070312 342 C 100.300781 336.132812 85.359375 327.417969 71.257812 315.855469 L 71.25 315.855469 C 28.550781 276.898438 15.410156 224.578125 31.832031 158.894531 L 31.824219 158.894531 C 46.609375 111.863281 72.878906 76.308594 110.636719 52.226562 Z M 200.125 24.347656 C 241.015625 24.347656 277.441406 41.425781 309.402344 75.582031 L 309.386719 75.582031 C 348.476562 125.730469 359 180.050781 340.964844 238.546875 L 340.960938 238.546875 C 318.585938 298.742188 278.789062 335.824219 221.578125 349.78125 L 221.5625 349.78125 C 219.714844 350.121094 217.875 350.4375 216.042969 350.722656 C 256.996094 339.492188 288.238281 316.179688 309.761719 280.777344 C 309.796875 280.722656 309.828125 280.664062 309.859375 280.605469 C 331.382812 239.703125 333.402344 196.300781 315.925781 150.390625 L 315.898438 150.324219 C 298.523438 107.625 265.789062 76.28125 217.691406 56.300781 C 217.292969 56.136719 216.882812 56.058594 216.476562 56.058594 C 215.230469 56.058594 214.046875 56.796875 213.539062 58.019531 C 212.867188 59.640625 213.636719 61.5 215.257812 62.171875 C 261.71875 81.472656 293.308594 111.65625 310.015625 152.722656 C 326.785156 196.816406 324.859375 238.457031 304.238281 277.644531 L 304.230469 277.644531 C 280.640625 316.335938 244.863281 339.960938 196.898438 348.519531 C 186.84375 350.21875 177.039062 351.070312 167.480469 351.070312 C 166.148438 351.070312 164.820312 351.054688 163.496094 351.019531 L 163.480469 351.019531 C 128.195312 345.355469 96.613281 327.28125 68.734375 296.792969 L 68.71875 296.792969 C 36.714844 254.183594 30.375 205.714844 49.695312 151.382812 L 49.6875 151.382812 C 73.085938 97.21875 105.242188 58.179688 146.152344 34.269531 L 146.140625 34.269531 C 149.9375 32.773438 153.816406 31.363281 157.78125 30.039062 L 157.765625 30.039062 C 172.382812 26.246094 186.5 24.347656 200.125 24.347656 Z M 169.777344 15.929688 C 169.378906 15.929688 168.972656 16.003906 168.582031 16.164062 C 159.839844 19.722656 151.429688 23.847656 143.355469 28.539062 L 143.339844 28.539062 C 84.5625 51.800781 45.371094 94.617188 25.765625 156.984375 C 25.746094 157.046875 25.730469 157.105469 25.714844 157.167969 C 8.609375 225.394531 22.359375 279.855469 66.96875 320.550781 C 67.011719 320.589844 67.050781 320.625 67.09375 320.660156 C 95.671875 344.132812 127.527344 356.367188 162.664062 357.371094 L 162.648438 357.371094 C 170.914062 358.679688 179.378906 359.335938 188.035156 359.335938 C 199.316406 359.335938 210.929688 358.222656 222.875 356 C 222.933594 355.992188 222.988281 355.976562 223.046875 355.964844 C 282.515625 341.46875 323.828125 303.007812 346.980469 240.589844 C 347 240.53125 347.019531 240.476562 347.035156 240.417969 C 365.75 179.726562 354.8125 123.40625 314.222656 71.453125 C 314.164062 71.378906 314.105469 71.308594 314.039062 71.238281 C 280.800781 35.714844 242.894531 17.953125 200.328125 17.953125 C 191.332031 17.953125 182.125 18.75 172.707031 20.335938 C 173.023438 19.585938 173.050781 18.71875 172.722656 17.910156 C 172.21875 16.675781 171.03125 15.929688 169.777344 15.929688 Z M 169.777344 15.929688 " fill-opacity="0.988" fill-rule="nonzero"/></g><g fill="#cca300" fill-opacity="1"><g transform="translate(69.221102, 289.946583)"><g><path d="M 186.015625 -164.484375 C 188.523438 -157.234375 189.78125 -149.6875 189.78125 -141.84375 C 189.78125 -97.738281 169.582031 -74.207031 129.1875 -71.25 C 68.21875 -66.664062 37.734375 -90.488281 37.734375 -142.71875 C 37.734375 -150.414062 38.992188 -158.484375 41.515625 -166.921875 C 41.804688 -168.546875 44.023438 -169.359375 48.171875 -169.359375 C 54.535156 -169.359375 57.492188 -168.546875 57.046875 -166.921875 C 49.347656 -140.878906 52.085938 -119.492188 65.265625 -102.765625 C 76.210938 -88.710938 90.269531 -79.910156 107.4375 -76.359375 C 126.226562 -72.359375 141.617188 -76.867188 153.609375 -89.890625 C 174.316406 -112.242188 179.9375 -137.109375 170.46875 -164.484375 C 170.03125 -165.660156 172.328125 -166.472656 177.359375 -166.921875 C 182.390625 -167.066406 185.273438 -166.253906 186.015625 -164.484375 Z M 179.796875 -48.828125 C 166.773438 -48.828125 147.390625 -48.976562 121.640625 -49.28125 C 121.335938 -41.726562 121.335938 -34.179688 121.640625 -26.640625 C 134.660156 -26.492188 154.046875 -26.269531 179.796875 -25.96875 C 184.234375 -25.96875 186.523438 -25.226562 186.671875 -23.75 C 186.523438 -22.125 184.234375 -21.3125 179.796875 -21.3125 C 171.953125 -21.3125 162.332031 -21.382812 150.9375 -21.53125 C 131.550781 -21.820312 121.859375 -21.96875 121.859375 -21.96875 C 122.597656 -10.28125 123.5625 0.0703125 124.75 9.09375 C 124.894531 10.726562 122.15625 11.546875 116.53125 11.546875 C 111.800781 11.546875 109.359375 10.726562 109.203125 9.09375 C 107.578125 -2.738281 106.617188 -13.09375 106.328125 -21.96875 C 85.304688 -21.96875 66.660156 -21.378906 50.390625 -20.203125 C 46.835938 -19.898438 44.023438 -20.488281 41.953125 -21.96875 C 39.585938 -23.300781 40.992188 -24.191406 46.171875 -24.640625 C 62.148438 -25.671875 82.125 -26.335938 106.09375 -26.640625 C 105.65625 -33.296875 105.582031 -40.84375 105.875 -49.28125 C 85.15625 -49.28125 66.660156 -48.6875 50.390625 -47.5 C 46.835938 -47.207031 44.023438 -47.800781 41.953125 -49.28125 C 39.585938 -50.757812 40.992188 -51.71875 46.171875 -52.15625 C 63.929688 -53.34375 83.90625 -53.9375 106.09375 -53.9375 C 106.394531 -58.96875 106.691406 -62.742188 106.984375 -65.265625 C 107.128906 -67.035156 109.867188 -67.847656 115.203125 -67.703125 C 120.234375 -67.554688 122.75 -66.742188 122.75 -65.265625 C 122.457031 -62.742188 122.160156 -58.96875 121.859375 -53.9375 C 147.609375 -53.644531 166.921875 -53.5 179.796875 -53.5 C 184.234375 -53.5 186.523438 -52.757812 186.671875 -51.28125 C 186.523438 -49.644531 184.234375 -48.828125 179.796875 -48.828125 Z M 179.796875 -48.828125 "/></g></g></g></svg>